<svg width="24" height="24" viewBox="0 0 24 24" fill="none" xmlns="http://www.w3.org/2000/svg">
<path fill-rule="evenodd" clip-rule="evenodd" d="M3.5 6C3.5 5.44772 3.94772 5 4.5 5H19.5C20.0523 5 20.5 5.44772 20.5 6C20.5 6.55228 20.0523 7 19.5 7H4.5C3.94772 7 3.5 6.55228 3.5 6ZM3.5 12C3.5 11.4477 3.94772 11 4.5 11H19.5C20.0523 11 20.5 11.4477 20.5 12C20.5 12.5523 20.0523 13 19.5 13H4.5C3.94772 13 3.5 12.5523 3.5 12ZM4.5 17C3.94772 17 3.5 17.4477 3.5 18C3.5 18.5523 3.94772 19 4.5 19H19.5C20.0523 19 20.5 18.5523 20.5 18C20.5 17.4477 20.0523 17 19.5 17H4.5Z" fill="#2D2233"/>
</svg>
